<?xml version="1.0" encoding="utf-8"?>
<!-- Generator: Adobe Illustrator 23.0.2, SVG Export Plug-In . SVG Version: 6.00 Build 0)  -->
<svg version="1.1" id="Layer_1" xmlns="http://www.w3.org/2000/svg" x="0px" y="0px"
	 viewBox="0 0 37 38.1" style="enable-background:new 0 0 37 38.1;" xml:space="preserve">
<style type="text/css">
	.st0{fill-rule:evenodd;clip-rule:evenodd;fill:#00437D;}
</style>
<title>logo-fletcher</title>
<desc>Created with Sketch.</desc>
<g id="Hotels-Original-Logos">
	<g id="logo-fletcher">
		<g>
			<path id="Fill-1" class="st0" d="M11.3,4.9c2.2,0.3,4.3,0.4,5.8,0.4h6.4c0.9-1.7,1.1-2.1,1.4-2.1c0.3,0,0.4,0.4,0.4,0.6
				c0,0.2-0.1,0.5-0.2,0.7l-0.4,0.9l4.3-0.1C26,2.9,22.4,1.5,18.5,1.5c-3.4,0-6.5,1-9.2,2.8C9.8,4.5,10.4,4.7,11.3,4.9"/>
			<path id="Fill-3" class="st0" d="M10.7,34.4c0-5.2,6.2-13.4,6.2-15.5c0-0.6-0.2-1.3-1-1.8l-1.3-0.8c-0.2-0.2-0.4-0.4-0.4-0.7
				c0.1-0.5,0-0.2,0.2-0.8l0.7-1.3c0.2-0.4,0.3-0.6,0.6-0.6c0.4,0,1.3,1.1,3.1,1.9l3.1-6.5c-2.3,0.1-4.5,0.3-6.8,0.3
				c-4.3,0-6.6-1.8-7.5-3.3c-3.9,3.2-6.4,8.1-6.4,13.7c0,6.8,3.8,12.7,9.3,15.6C10.7,34.6,10.7,34.5,10.7,34.4"/>
			<path id="Fill-5" class="st0" d="M30.4,6.5l-0.2,0.6c-0.1,0.5-0.4,0.7-0.8,0.8l-6.2,0.3l-3.3,6.9c2.4,0.8,6.6,1,7.3,1h2.8
				c0.2,0,0.3,0.1,0.3,0.2c0,0.2-1.6,2.2-5.6,2.2c-3.1,0-6-0.8-6.4-0.8c-0.2,0-0.4,0.2-0.4,0.4c0,0.2,0.2,0.8,0.2,1.5
				c0,5.4-3.6,13.4-5.6,15.7c1.9,0.7,3.9,1.2,6.1,1.2c9.4,0,17-7.9,17-17.6C35.5,14.1,33.5,9.7,30.4,6.5"/>
		</g>
	</g>
</g>
</svg>
