<svg width="169" height="57" viewBox="0 0 169 57" fill="none" xmlns="http://www.w3.org/2000/svg">
<path fill-rule="evenodd" clip-rule="evenodd" d="M56.5979 29.4376V10.2123H49.0892V29.5001H49.0941C49.1276 32.6729 51.71 35.2345 54.8906 35.2345H56.6016V29.4376H56.5979ZM50.1863 7.26371C50.9178 7.99515 51.8092 8.36088 52.8607 8.36088C53.8893 8.36088 54.7693 7.99515 55.5007 7.26371C56.2322 6.53227 56.5979 5.64083 56.5979 4.58938C56.5979 3.56079 56.2322 2.68078 55.5007 1.94933C54.7693 1.21789 53.8893 0.852173 52.8607 0.852173C51.8092 0.852173 50.9178 1.21789 50.1863 1.94933C49.4549 2.68078 49.0892 3.56079 49.0892 4.58938C49.0892 5.64083 49.4549 6.53227 50.1863 7.26371ZM31.4263 11.2123C27.9062 11.2123 24.9004 12.4352 22.409 14.881C19.8718 12.4352 16.8431 11.2123 13.3231 11.2123C9.7573 11.2123 6.72868 12.4581 4.23721 14.9495C1.74574 17.441 0.5 20.4582 0.5 24.0011V36.8242H8.0087V24.0011C8.0087 22.5382 8.523 21.2925 9.55159 20.2639C10.603 19.2353 11.8602 18.721 13.3231 18.721C14.7631 18.721 15.9974 19.2353 17.026 20.2639C18.0774 21.2925 18.6032 22.5382 18.6032 24.0011V36.8242H26.1119V24.0011C26.1119 22.5382 26.6262 21.2925 27.6548 20.2639C28.7062 19.2353 29.9634 18.721 31.4263 18.721C32.8663 18.721 34.1006 19.2353 35.1292 20.2639C36.1806 21.2925 36.7063 22.5382 36.7063 24.0011V36.8242H44.215V24.0011C44.215 20.4582 42.9693 17.441 40.4778 14.9495C37.9864 12.4581 34.9692 11.2123 31.4263 11.2123ZM61.2087 11.2123H68.7174V35.5899C68.7174 39.1328 67.4717 42.15 64.9802 44.6415C62.4887 47.133 59.0372 48.3787 54.6257 48.3787V40.87C56.9344 40.87 58.603 40.3557 59.6315 39.3271C60.683 38.2985 61.2087 37.0528 61.2087 35.5899V11.2123ZM64.9802 9.36088C63.9288 9.36088 63.0373 8.99515 62.3059 8.26371C61.5744 7.53227 61.2087 6.64083 61.2087 5.58938C61.2087 4.56079 61.5744 3.68078 62.3059 2.94933C63.0373 2.21789 63.9288 1.85217 64.9802 1.85217C66.0088 1.85217 66.8888 2.21789 67.6203 2.94933C68.3517 3.68078 68.7174 4.56079 68.7174 5.58938C68.7174 6.64083 68.3517 7.53227 67.6203 8.26371C66.8888 8.99515 66.0088 9.36088 64.9802 9.36088ZM73.0649 36.8242H80.5736V24.0011C80.5736 22.5382 81.0879 21.2925 82.1165 20.2639C83.168 19.2353 84.4251 18.721 85.888 18.721C87.328 18.721 88.5623 19.2353 89.5909 20.2639C90.6424 21.2925 91.1681 22.5382 91.1681 24.0011V36.8242H98.6768V24.0011C98.6768 20.4582 97.4311 17.441 94.9396 14.9495C92.4481 12.4581 89.4309 11.2123 85.888 11.2123C82.3222 11.2123 79.2936 12.4581 76.8021 14.9495C74.3107 17.441 73.0649 20.4582 73.0649 24.0011V36.8242ZM77.9188 56.1991L78.5202 56.2192L78.861 55.3972C78.3198 55.4373 78.0992 55.4373 77.7585 55.4373H77.7584H77.7582C77.1368 55.4373 77.0567 55.4373 76.9965 55.3972C76.9351 55.3584 76.9151 55.297 76.9151 55.1767V55.1566L76.9965 50.563C77.3373 50.5442 77.598 50.5442 77.7584 50.5442C78.5403 50.5442 79.3823 50.583 79.8033 50.6244C79.9838 50.6444 80.1053 50.6833 80.1855 50.7447C80.3246 50.865 80.3659 51.0654 80.3659 51.4464C80.3659 51.6669 80.3659 51.7672 80.3246 52.0478H80.9473V51.4263C80.9473 51.1771 80.9594 50.8333 80.9741 50.4118C80.9784 50.2886 80.9829 50.1589 80.9874 50.0229C81.0075 49.6207 81.0275 49.32 81.0476 49.1195C81.0476 49.0524 81.0616 48.9424 81.0779 48.8144L81.0877 48.7373H80.5063C80.5263 48.8188 80.5263 48.8977 80.5263 48.9378C80.5263 49.2197 80.4662 49.3588 80.3058 49.4202C80.064 49.5205 79.564 49.5606 78.6405 49.5606H77.0354L77.0955 45.5897C77.6381 45.5696 77.8586 45.5696 78.1393 45.5696C78.7408 45.5696 79.2019 45.5897 79.9249 45.6486C80.2857 45.6899 80.4461 45.73 80.5852 45.8303C80.7669 45.9505 80.8672 46.2112 80.8672 46.552C80.8672 46.7124 80.8672 46.7926 80.8271 47.0933H81.4085C81.4113 46.9966 81.4138 46.9088 81.416 46.8272C81.4297 46.3338 81.437 46.0705 81.4887 45.4694C81.5087 45.1085 81.5288 44.8078 81.5488 44.5659C81.5599 44.4768 81.5711 44.4187 81.5822 44.3605C81.5911 44.314 81.6 44.2674 81.609 44.2051H81.5087C81.4285 44.3053 81.3684 44.3655 81.2481 44.4056C81.0676 44.4657 80.807 44.487 80.2657 44.487C79.3823 44.5058 78.841 44.5058 78.6405 44.5058H76.3537H76.1933C75.3312 44.5058 74.7097 44.5258 74.3288 44.5659C74.297 44.5688 74.2682 44.5713 74.2413 44.5736C74.0818 44.5873 73.9934 44.5948 73.7875 44.6474L73.5068 45.408C74.2085 45.2877 74.5694 45.2689 74.9102 45.2689C75.2109 45.2689 75.3112 45.309 75.3112 45.4694L75.1508 53.8134C75.1307 54.6755 75.0907 55.0363 74.9503 55.2368C74.83 55.416 74.6897 55.4774 74.3288 55.4974C74.2674 55.4974 74.1672 55.4974 74.0281 55.5162L73.7875 56.2806C74.6696 56.1991 75.0105 56.1804 75.652 56.159C75.7749 56.159 75.9031 56.1538 76.0284 56.1487C76.1484 56.1438 76.2659 56.139 76.3738 56.139C76.5728 56.139 76.6987 56.1451 76.9501 56.1573L76.9505 56.1573L76.9507 56.1573C77.155 56.1672 77.4422 56.1812 77.9188 56.1991ZM92.4353 53.4317C92.1734 54.0933 92.0932 54.3351 91.8739 55.0356C91.6703 55.6257 91.6208 55.7586 91.5045 56.0712L91.4717 56.1596C91.1521 56.2385 90.7299 56.2798 89.8076 56.2798C89.6673 56.2798 89.5219 56.2748 89.3766 56.2698C89.2312 56.2648 89.0859 56.2598 88.9455 56.2598L87.7013 56.2197C87.1399 56.1996 86.6187 56.1996 86.1375 56.1996C85.5749 56.1996 85.3944 56.1996 84.813 56.2385L85.0536 55.4967H85.3142C85.9771 55.4967 86.1575 55.1571 86.1776 53.9329L86.3179 45.5889C86.3179 45.3483 86.2979 45.3095 86.1375 45.3095C86.1312 45.3095 86.1235 45.31 86.1142 45.3107C86.1044 45.3115 86.0931 45.3127 86.0799 45.314L86.0798 45.314C86.0249 45.3196 85.9393 45.3283 85.8167 45.3283L85.1338 45.3684L84.6927 45.4285L84.9734 44.6266C85.462 44.5542 85.7556 44.5472 86.3977 44.5317L86.6187 44.5263L87.6211 44.5063C88.5032 44.5063 88.7651 44.4862 89.6071 44.4061L89.3465 45.188C89.1861 45.2093 89.0658 45.2093 88.9856 45.2093C88.6035 45.228 88.4631 45.2681 88.3428 45.3884C88.2025 45.5288 88.1423 45.8696 88.1236 46.6127L87.982 54.6747V54.6948C87.982 54.8363 88.002 54.9165 88.0822 54.9754C88.2025 55.0757 88.7037 55.117 89.7074 55.117C90.9705 55.117 91.4717 54.6747 91.6935 53.4317H92.4353ZM103.662 53.6729C103.692 53.6024 103.723 53.5319 103.763 53.4317H103.061C102.941 53.9141 102.74 54.2737 102.459 54.5745C102.097 54.9566 101.576 55.0569 100.113 55.0569C99.07 55.0569 98.4084 55.0168 98.2668 54.9165C98.2066 54.8752 98.1666 54.795 98.1666 54.6747L98.228 50.5434H100.233C100.975 50.5635 101.275 50.5835 101.396 50.6637C101.517 50.7251 101.576 50.8843 101.576 51.205C101.576 51.4439 101.559 51.5806 101.527 51.8462L101.517 51.9268H102.097C102.119 50.3242 102.139 49.8417 102.259 48.6777H101.718V48.7591C101.718 49.4207 101.496 49.521 99.8519 49.521H98.2668L98.2868 45.609H99.7717C100.614 45.609 101.195 45.6491 101.537 45.6892C101.736 45.7305 101.898 45.7894 101.978 45.8696C102.097 45.9911 102.159 46.2104 102.159 46.5312C102.159 46.6528 102.159 46.7918 102.119 47.0537H102.72C102.78 45.8095 102.82 45.2681 102.88 44.6065C102.897 44.5145 102.907 44.4502 102.916 44.3934L102.916 44.3932C102.928 44.3141 102.937 44.2497 102.961 44.1454H102.86C102.82 44.2457 102.76 44.3058 102.66 44.3459C102.459 44.4261 102.219 44.4662 101.718 44.4862C101.295 44.5063 100.975 44.5063 100.734 44.5063H97.2243C96.6629 44.5063 95.8209 44.5464 95.3998 44.6065C95.2996 44.6065 95.1781 44.6266 94.9976 44.6667L94.7169 45.4085L94.7441 45.4034C95.0449 45.3472 95.1489 45.3278 95.5189 45.3095C95.7407 45.2882 96.0414 45.2681 96.1617 45.2681C96.4624 45.2681 96.5426 45.3095 96.5426 45.4699L96.4023 54.1346C96.4023 55.2774 96.2619 55.4779 95.4988 55.4779H95.2996L95.0177 56.2798C95.4037 56.2219 95.475 56.2198 96.0692 56.2018L96.1404 56.1996C96.6429 56.1796 96.9436 56.1796 97.0839 56.1796L100.052 56.2197C100.254 56.2197 100.439 56.225 100.613 56.2299C100.767 56.2343 100.913 56.2385 101.055 56.2385C101.637 56.2385 102.159 56.1996 102.62 56.1195L102.7 55.9791L102.981 55.2962L103.562 53.9141C103.602 53.8139 103.632 53.7434 103.662 53.6729ZM113.605 56.1996C113.436 56.1996 113.295 56.1923 113.184 56.1865L113.184 56.1865C113.111 56.1827 113.051 56.1796 113.004 56.1796C112.379 56.1678 112.08 56.1556 111.883 56.1475L111.883 56.1475L111.883 56.1475C111.744 56.1419 111.656 56.1382 111.54 56.1382C111.398 56.1382 111.243 56.143 111.079 56.148L111.078 56.148H111.078H111.078L111.078 56.148C110.894 56.1536 110.698 56.1595 110.497 56.1595C109.735 56.1996 109.454 56.2197 108.692 56.2999L108.933 55.538C110.096 55.5167 110.216 55.3576 110.236 53.8327L110.416 45.5889L109.053 45.609C108.171 45.629 107.73 45.7092 107.549 45.8696C107.369 46.05 107.267 46.431 107.267 46.9535C107.267 47.0537 107.267 47.1339 107.287 47.2943H106.626C106.726 46.2518 106.786 45.1078 106.786 44.5852C106.786 44.4662 106.786 44.3058 106.766 44.0853H106.866C106.907 44.2056 106.947 44.2657 107.027 44.3058C107.328 44.4461 107.749 44.4862 109.013 44.4862H113.645C114.789 44.4862 115.591 44.4061 115.832 44.2858C115.892 44.2457 115.952 44.2056 116.012 44.1053H116.113C116.012 44.5263 115.992 44.6266 115.932 45.4085C115.872 46.1315 115.872 46.352 115.872 46.6127C115.872 46.753 115.872 46.9735 115.892 47.253H115.23C115.271 46.9735 115.271 46.8733 115.271 46.6916C115.271 45.7706 115.09 45.629 113.886 45.609L112.222 45.5889L112.042 55.2361V55.2574C112.042 55.4378 112.062 55.4378 112.723 55.4378C113.244 55.4378 113.385 55.4378 113.806 55.3777L113.605 56.1996ZM128.532 53.5105L128.532 53.5097L128.533 53.5086C128.624 53.3215 128.7 53.1667 128.844 52.8909H128.041C127.661 54.2943 126.537 55.1576 125.032 55.1576C122.506 55.1576 120.781 53.0914 120.781 50.0615C120.781 47.2334 122.264 45.4892 124.693 45.4892C125.375 45.4892 126.116 45.6295 126.678 45.8689C126.938 45.9904 127.12 46.1508 127.239 46.3713C127.319 46.5317 127.381 46.7322 127.381 46.9126C127.381 47.0016 127.369 47.0796 127.347 47.2284L127.347 47.2288L127.347 47.2292L127.347 47.2296L127.346 47.2298C127.339 47.2818 127.33 47.3424 127.319 47.4151H127.961V46.9327C127.961 46.0104 128.082 44.8075 128.221 44.2249H128.122C128.041 44.4066 127.861 44.4654 127.359 44.4654H127.12L126.257 44.4467C125.675 44.4254 125.294 44.4254 125.134 44.4254C123.93 44.4254 122.607 44.7474 121.723 45.2473C121.122 45.5894 120.58 46.0706 120.119 46.6721C119.297 47.776 118.836 49.1593 118.836 50.6642C118.836 52.8107 119.799 54.6552 121.424 55.6175C122.286 56.1388 123.248 56.3806 124.511 56.3806C125.595 56.3806 126.577 56.2189 127.5 55.8982C127.68 55.397 127.76 55.1965 127.942 54.7754C128.062 54.4935 128.203 54.194 128.363 53.8532C128.432 53.7154 128.484 53.6085 128.532 53.5105ZM143.36 56.2387L143.261 56.2275C143.128 56.2122 143.02 56.1999 142.939 56.1999C142.841 56.1877 142.706 56.1829 142.525 56.1765C142.409 56.1724 142.274 56.1676 142.117 56.1598H140.973C140.311 56.1598 139.85 56.1798 138.768 56.2801L139.007 55.517C139.63 55.4969 139.77 55.4781 139.951 55.3779C140.171 55.2576 140.251 54.9368 140.271 54.1737L140.331 50.6439H134.475L134.395 54.9957V55.1962C134.395 55.3967 134.475 55.4368 134.896 55.4368C135.277 55.4368 135.499 55.4368 136.02 55.3967L135.718 56.2387L135.437 56.2187L134.816 56.1999C134.535 56.1798 133.893 56.1598 133.272 56.1598H132.87C132.228 56.1798 131.947 56.1999 131.186 56.3001L131.446 55.4969L131.513 55.4946C131.996 55.478 132.093 55.4747 132.209 55.3967C132.489 55.2363 132.589 54.8754 132.609 53.8717L132.789 45.6293V45.5892C132.789 45.3486 132.731 45.3085 132.429 45.3085C132.068 45.3085 131.767 45.3285 131.145 45.4087L131.426 44.5466H132.629C134.635 44.5253 134.936 44.5065 136.02 44.4063L135.738 45.2082C135.156 45.2283 134.996 45.2684 134.836 45.3686C134.655 45.529 134.555 45.8097 134.555 46.331L134.495 49.6001H140.352L140.432 45.5491C140.432 45.3887 140.352 45.3085 140.151 45.3085C140.091 45.3085 139.931 45.3085 139.67 45.3285L139.088 45.3486L138.808 45.3887L139.107 44.5466H139.91H140.793C141.615 44.5466 142.257 44.5253 143.039 44.4664L143.601 44.4251L143.34 45.1882C142.358 45.2283 142.237 45.3486 142.216 46.3924L142.057 55.1762C142.057 55.3967 142.136 55.4368 142.538 55.4368C142.819 55.4368 143.14 55.4167 143.681 55.3779L143.36 56.2387ZM155.227 53.6729C155.257 53.6024 155.287 53.5319 155.327 53.4317H154.625C154.505 53.9141 154.305 54.2737 154.024 54.5745C153.662 54.9566 153.14 55.0569 151.677 55.0569C150.634 55.0569 149.973 55.0168 149.831 54.9165C149.771 54.8752 149.731 54.795 149.731 54.6747L149.792 50.5434H151.797C152.539 50.5635 152.84 50.5835 152.96 50.6637C153.082 50.7251 153.14 50.8843 153.14 51.205C153.14 51.444 153.124 51.5807 153.091 51.8466L153.082 51.9268H153.662C153.683 50.3242 153.703 49.8417 153.823 48.6777H153.282V48.7591C153.282 49.4207 153.06 49.521 151.416 49.521H149.831L149.851 45.609H151.336C152.178 45.609 152.76 45.6491 153.102 45.6892C153.301 45.7305 153.462 45.7894 153.543 45.8696C153.662 45.9911 153.723 46.2104 153.723 46.5312C153.723 46.6528 153.723 46.7918 153.683 47.0537H154.284C154.345 45.8095 154.385 45.2681 154.445 44.6065C154.462 44.5144 154.471 44.4501 154.48 44.3933L154.48 44.3931C154.492 44.3141 154.502 44.2497 154.525 44.1454H154.425C154.385 44.2457 154.325 44.3058 154.224 44.3459C154.024 44.4261 153.783 44.4662 153.282 44.4862C152.86 44.5063 152.539 44.5063 152.298 44.5063H148.789C148.227 44.5063 147.385 44.5464 146.964 44.6065C146.864 44.6065 146.742 44.6266 146.562 44.6667L146.281 45.4085L146.308 45.4034C146.609 45.3472 146.713 45.3278 147.083 45.3095C147.305 45.2882 147.606 45.2681 147.726 45.2681C148.027 45.2681 148.107 45.3095 148.107 45.4699L147.967 54.1346C147.967 55.2774 147.826 55.4779 147.063 55.4779H146.864L146.582 56.2798C146.968 56.2219 147.039 56.2198 147.635 56.2018L147.706 56.1996C148.207 56.1796 148.508 56.1796 148.648 56.1796L151.617 56.2197C151.818 56.2197 152.003 56.225 152.177 56.2299C152.332 56.2343 152.478 56.2385 152.619 56.2385C153.202 56.2385 153.723 56.1996 154.184 56.1195L154.264 55.9791L154.545 55.2962L155.126 53.9141C155.167 53.8139 155.197 53.7434 155.227 53.6729ZM162.122 50.0421C162.824 50.0421 163.245 49.9619 163.626 49.7602C164.208 49.4406 164.549 48.7377 164.549 47.8756C164.549 46.3306 163.545 45.3883 161.922 45.3883C161.879 45.3883 161.829 45.3919 161.772 45.3961L161.771 45.3961C161.694 45.4018 161.604 45.4084 161.499 45.4084L161.44 50.002C161.741 50.0421 161.841 50.0421 162.122 50.0421ZM168.279 56.2597C167.758 56.3812 167.296 56.4388 166.876 56.4388C166.434 56.4388 166.034 56.2998 165.712 56.0391C165.532 55.8787 165.371 55.6783 165.211 55.4577C164.77 54.8162 164.569 54.454 163.365 52.0069C163.276 51.8304 163.164 51.6049 163.022 51.3213C162.939 51.1559 162.847 50.9707 162.743 50.7638C162.363 50.8039 162.242 50.8039 162.062 50.8039C161.951 50.8039 161.855 50.7963 161.722 50.7858C161.639 50.7792 161.542 50.7715 161.419 50.7638L161.36 55.1169V55.1357C161.36 55.3775 161.44 55.4164 161.781 55.4164C161.962 55.4164 162.182 55.4164 162.423 55.3963L162.964 55.3775L162.643 56.2196C161.701 56.1594 161.34 56.1594 160.417 56.1594C159.354 56.1594 159.073 56.1594 158.21 56.2998L158.452 55.5166C158.953 55.4978 159.113 55.4778 159.274 55.3775C159.394 55.2961 159.474 55.177 159.514 55.0167C159.591 54.7488 159.594 54.6077 159.612 53.8987V53.8984L159.615 53.7924L159.715 45.5888V45.57C159.715 45.4084 159.695 45.3683 159.655 45.3282C159.595 45.268 159.434 45.2279 159.234 45.2279C158.833 45.2279 158.31 45.2881 157.87 45.3482L158.071 44.6465C158.114 44.6411 158.154 44.6358 158.191 44.6308C158.293 44.6172 158.373 44.6064 158.432 44.6064C159.334 44.4661 160.839 44.3859 162.242 44.3859C163.806 44.3859 164.569 44.5663 165.271 45.0876C165.953 45.5888 166.273 46.2917 166.273 47.214C166.273 48.6174 165.271 50.022 164.067 50.3629C164.228 50.4832 164.289 50.5433 164.429 50.725C164.71 51.0846 165.01 51.5269 165.231 51.9066L166.013 53.211C166.117 53.3897 166.255 53.6014 166.425 53.8628L166.427 53.8653C166.486 53.9552 166.548 54.051 166.614 54.1533C167.117 54.9164 167.397 55.2572 167.738 55.4978C167.858 55.5981 168.039 55.6783 168.159 55.6983C168.238 55.7171 168.259 55.7171 168.42 55.7171H168.5L168.279 56.2597Z" fill="white"/>
</svg>
